# xmcd
#
# Track frame offsets:
#	150
#	18515
#	39553
#	62063
#	78570
#	93085
#	109983
#	120373
#	136538
#	148725
#	164360
#
# Disc length: 2526 seconds
#
# Revision: 1
# Processed by: cddbd v1.5.1PL0 Copyright (c) Steve Scherf et al.
# Submitted via: audiograbber 1.82.02
#
DISCID=8a09dc0b
DTITLE=Little Brother Montgomery - Chicago The Living Legend
DYEAR=1961
DGENRE=Blues
TTITLE0=Home Again Blues
TTITLE1=Up The Country Blues
TTITLE2=Saturday Night Function
TTITLE3=Michigan Water Blues
TTITLE4=Sweet Daddy
TTITLE5=Prescription For The Blues
TTITLE6=44 Vicksburg
TTITLE7=Trouble In Mind
TTITLE8=Riverside Boogie
TTITLE9=Oh Daddy
TTITLE10=Somethin' Keep Worryin' Me Blues
EXTD=
EXTT0=
EXTT1=
EXTT2=
EXTT3=
EXTT4=
EXTT5=
EXTT6=
EXTT7=
EXTT8=
EXTT9=
EXTT10=
PLAYORDER=
